# xmcd CD database file
#
# Track frame offsets:
#	150
#	23622
#	47012
#	66809
#	89189
#	108274
#	135077
#	157788
#	179994
#	200770
#	223290
#	246968
#	269392
#
# Disc length: 3716 seconds
#
# Revision: 2
# Processed by: cddbd v1.5.2PL0 Copyright (c) Steve Scherf et al.
# Submitted via: CDex 1.51
#
DISCID=bf0e820d
DTITLE=Joanne K. Rowling - Harry Potter und die Heiligtümer des Todes [CD 6)
DYEAR=2008
DGENRE=Hörbuch
TTITLE0=Kreachers Geschichte 1
TTITLE1=Kreachers Geschichte 2
TTITLE2=Kreachers Geschichte 3
TTITLE3=Kreachers Geschichte 4
TTITLE4=Kreachers Geschichte 5
TTITLE5=Kreachers Geschichte 6
TTITLE6=Kreachers Geschichte 7
TTITLE7=Kreachers Geschichte 8
TTITLE8=Kreachers Geschichte 9
TTITLE9=Kreachers Geschichte 10
TTITLE10=Kreachers Geschichte 11
TTITLE11=Das Bestechungsgeschenk 1
TTITLE12=Das Bestechungsgeschenk 2
EXTD=YEAR: 2008
EXTT0=
EXTT1=
EXTT2=
EXTT3=
EXTT4=
EXTT5=
EXTT6=
EXTT7=
EXTT8=
EXTT9=
EXTT10=
EXTT11=
EXTT12=
PLAYORDER=
